P3 45 1 1589
558 521 434 682 627 521 959 884 722 1028 968 765 1192 1142 837 1245 1202 845 1159 1153 798 1155 1140 790 1250 1223 856 1374 1316 921 1307 1253 944 1202 1148 918 1224 1162 956 1255 1187 980 1304 1235 1024 1329 1259 1046 1376 1302 1086 1408 1329 1110 1450 1366 1144 1484 1397 1173 1517 1428 1204 1532 1442 1216 1529 1443 1215 1575 1483 1253 1579 1481 1253 1561 1477 1249 1559 1476 1249 1554 1474 1248 1565 1483 1255 1556 1475 1249 1538 1462 1236 1543 1467 1244 1543 1465 1238 1538 1461 1236 1560 1478 1252 1523 1441 1213 1474 1405 1183 1472 1400 1178 1457 1382 1158 1455 1381 1158 1403 1334 1112 1363 1295 1076 1302 1241 1023 1287 1224 1010 1281 1218 1005
